<?xml version="1.0" encoding="UTF-8" standalone="no"?>
<!-- Created with Inkscape (http://www.inkscape.org/) -->

<svg
   xmlns:dc="http://purl.org/dc/elements/1.1/"
   xmlns:cc="http://creativecommons.org/ns#"
   xmlns:rdf="http://www.w3.org/1999/02/22-rdf-syntax-ns#"
   xmlns:svg="http://www.w3.org/2000/svg"
   xmlns="http://www.w3.org/2000/svg"
   xmlns:sodipodi="http://sodipodi.sourceforge.net/DTD/sodipodi-0.dtd"
   xmlns:inkscape="http://www.inkscape.org/namespaces/inkscape"
   id="svg2"
   version="1.1"
   inkscape:version="0.48.5 r10040"
   width="1920"
   height="1080"
   sodipodi:docname="Dokument im Speicher 2"
   inkscape:export-filename="/home/hypfer/Desktop/trust_the_cloud.png"
   inkscape:export-xdpi="90"
   inkscape:export-ydpi="90">
  <metadata
     id="metadata8">
    <rdf:RDF>
      <cc:Work
         rdf:about="">
        <dc:format>image/svg+xml</dc:format>
        <dc:type
           rdf:resource="http://purl.org/dc/dcmitype/StillImage" />
        <dc:title></dc:title>
      </cc:Work>
    </rdf:RDF>
  </metadata>
  <defs
     id="defs6" />
  <sodipodi:namedview
     pagecolor="#2d2d2d"
     bordercolor="#666666"
     borderopacity="1"
     objecttolerance="10"
     gridtolerance="10"
     guidetolerance="10"
     inkscape:pageopacity="1"
     inkscape:pageshadow="2"
     inkscape:window-width="2560"
     inkscape:window-height="1009"
     id="namedview4"
     showgrid="false"
     showguides="true"
     inkscape:guide-bbox="true"
     inkscape:zoom="0.35355339"
     inkscape:cx="2791.6746"
     inkscape:cy="588.85954"
     inkscape:window-x="0"
     inkscape:window-y="24"
     inkscape:window-maximized="1"
     inkscape:current-layer="svg2">
    <sodipodi:guide
       orientation="1,0"
       position="1857.8231,180.19068"
       id="guide3896" />
  </sodipodi:namedview>
  <flowRoot
     xml:space="preserve"
     id="flowRoot3854"
     style="font-size:77px;font-style:normal;font-variant:normal;font-weight:normal;font-stretch:normal;line-height:125%;letter-spacing:0px;word-spacing:0px;fill:#000000;fill-opacity:1;stroke:none;font-family:Raleway;-inkscape-font-specification:Raleway"
     transform="translate(246.47675,-17.378088)"><flowRegion
       id="flowRegion3856"><rect
         id="rect3858"
         width="723.62292"
         height="95.529655"
         x="1160.6567"
         y="828.30511"
         style="font-size:77px" /></flowRegion><flowPara
       id="flowPara3860"
       style="font-size:77px;letter-spacing:1.08000004px;fill:#ececec;fill-opacity:1">Trust the IoT.</flowPara></flowRoot>  <flowRoot
     xml:space="preserve"
     id="flowRoot3854-3"
     style="font-size:77px;font-style:normal;font-variant:normal;font-weight:normal;font-stretch:normal;line-height:125%;letter-spacing:0px;word-spacing:0px;fill:#000000;fill-opacity:1;stroke:none;font-family:Raleway;-inkscape-font-specification:Raleway"
     transform="translate(-69.44025,97.621085)"><flowRegion
       id="flowRegion3856-6"><rect
         id="rect3858-7"
         width="1045.106"
         height="97.817802"
         x="1160.6567"
         y="828.30511"
         style="font-size:77px" /></flowRegion><flowPara
       id="flowPara3860-5"
       style="font-size:77px;letter-spacing:1.08000004px;fill:#ececec;fill-opacity:1">The IoT is your friend.</flowPara></flowRoot>  <path
     style="fill:#ececec;fill-opacity:1;stroke:none"
     d="m 1707.847,537.70633 c 4.9056,-0.21392 9.9225,1.86788 13.2187,6.71875 4.8375,7.11893 2.574,17.64049 -4.7812,22.125 -10.42,6.35315 -24.8562,-2.68628 -23.5,-14.71875 0.97,-8.60627 7.8928,-13.81234 15.0625,-14.125 z m -187.2813,0.0312 c 0.5637,0.005 1.1087,0.0285 1.6875,0.0937 15.0284,1.69391 19.3079,21.2548 6.25,28.59375 -10.7729,6.0547 -22.991,-1.03644 -23,-13.375 -0.01,-8.85324 6.6082,-15.3902 15.0625,-15.3125 z m -15.0625,113.81249 4.5,0 4.5,0 0,11.5 0,11.5 100,0 100,0 0,-11.5 0,-11.5 4.5,0 4.5,0 0,14.8125 c 0,10.17778 -0.3622,15.17477 -1.1875,16 -1.7414,1.7414 -213.8523,1.7414 -215.5937,0 -0.8252,-0.82523 -1.2188,-5.82222 -1.2188,-16 z"
     id="path2987"
     inkscape:connector-curvature="0"
     sodipodi:nodetypes="sssssccsccccccccccccccssssc" />
  <g
     id="g3052"
     transform="matrix(6.8958924,0,0,6.8958924,1285.1797,228.09959)"
     style="fill:#ececec;fill-opacity:1">
    <g
       id="g3038"
       style="fill:#ececec;fill-opacity:1">
      <path
         id="path3040"
         d="m 83,51.8 h -3.5 v -4 c 0,-6.1 -5,-11.1 -11.1,-11.1 H 62 v -1.2 c 3.4,-1.4 5.4,-4.4 5.4,-8.2 0,-5.1 -3.9,-9.1 -8.8,-9.1 H 36.9 c -4.9,0 -8.8,4 -8.8,9.1 0,3.8 2.1,6.9 5.6,8.3 v 1.1 H 28.5 C 22.2,36.7 17,41.9 17,48.2 V 71 79.9 h 5.3 v 2 h 8 v -2 h 35.9 v 2 h 8 v -2 h 5.3 V 71 56.3 H 83 V 51.8 z M 77.2,70.3 H 19.3 V 48.1 c 0,-4.7 3.8,-8.6 8.6,-8.6 h 40.5 c 4.9,0 8.8,3.9 8.8,8.8 v 22 z M 19.3,72 h 57.9 v 5.6 H 19.3 V 72 z M 34.9,33.9 c -3,-1 -4.9,-3.5 -4.9,-6.7 0,-4 3,-7.1 6.8,-7.1 h 21.7 c 3.8,0 6.8,3.1 6.8,7.1 0,3.1 -1.8,5.6 -4.7,6.6 L 60,34.1 v 2.6 H 35.6 v -2.5 l -0.7,-0.3 z"
         inkscape:connector-curvature="0"
         style="fill:#ececec;fill-opacity:1" />
    </g>
  </g>
</svg>
