<?xml version="1.0" encoding="UTF-8" standalone="no"?>
<!-- Created with Inkscape (http://www.inkscape.org/) -->

<svg
   xmlns:dc="http://purl.org/dc/elements/1.1/"
   xmlns:cc="http://creativecommons.org/ns#"
   xmlns:rdf="http://www.w3.org/1999/02/22-rdf-syntax-ns#"
   xmlns:svg="http://www.w3.org/2000/svg"
   xmlns="http://www.w3.org/2000/svg"
   xmlns:sodipodi="http://sodipodi.sourceforge.net/DTD/sodipodi-0.dtd"
   xmlns:inkscape="http://www.inkscape.org/namespaces/inkscape"
   id="svg2"
   version="1.1"
   inkscape:version="0.48.5 r10040"
   width="1920"
   height="1080"
   sodipodi:docname="trust_the_cloud.svg"
   inkscape:export-filename="/home/hypfer/Desktop/trust_the_cloud.png"
   inkscape:export-xdpi="90"
   inkscape:export-ydpi="90">
  <metadata
     id="metadata8">
    <rdf:RDF>
      <cc:Work
         rdf:about="">
        <dc:format>image/svg+xml</dc:format>
        <dc:type
           rdf:resource="http://purl.org/dc/dcmitype/StillImage" />
        <dc:title></dc:title>
      </cc:Work>
    </rdf:RDF>
  </metadata>
  <defs
     id="defs6" />
  <sodipodi:namedview
     pagecolor="#2d2d2d"
     bordercolor="#666666"
     borderopacity="1"
     objecttolerance="10"
     gridtolerance="10"
     guidetolerance="10"
     inkscape:pageopacity="1"
     inkscape:pageshadow="2"
     inkscape:window-width="2560"
     inkscape:window-height="1009"
     id="namedview4"
     showgrid="false"
     showguides="true"
     inkscape:guide-bbox="true"
     inkscape:zoom="0.5"
     inkscape:cx="1530.9287"
     inkscape:cy="670.74294"
     inkscape:window-x="0"
     inkscape:window-y="24"
     inkscape:window-maximized="1"
     inkscape:current-layer="svg2">
    <sodipodi:guide
       orientation="1,0"
       position="1857.8231,180.19068"
       id="guide3896" />
  </sodipodi:namedview>
  <g
     id="g3074"
     style="color:#ececec;fill:#ececec;fill-opacity:1"
     transform="matrix(5.233652,0,0,5.233652,1338.0715,352.25623)">
    <path
       id="path3076"
       d="m 50,23 c 11.9,0 22.2,8.5 24.6,20.3 l 0.5,2.3 2.3,0.1 C 85.6,46.2 92,53 92,61.2 92,69.9 84.9,77 76.2,77 H 27.5 C 16.7,77 8,68.3 8,57.5 8,47.5 15.5,39.2 25.4,38.2 L 27,38 27.7,36.6 C 32.1,28.2 40.6,23 50,23 m 0,-3 C 39.1,20 29.8,26.2 25.1,35.2 13.8,36.3 5,45.9 5,57.5 5,69.9 15.1,80 27.5,80 H 76.3 C 86.6,80 95,71.6 95,61.2 95,51.3 87.3,43.2 77.6,42.6 74.9,29.8 63.7,20 50,20 l 0,0 z"
       inkscape:connector-curvature="0"
       style="fill:#ececec;fill-opacity:1" />
  </g>
  <flowRoot
     xml:space="preserve"
     id="flowRoot3854"
     style="font-size:77px;font-style:normal;font-variant:normal;font-weight:normal;font-stretch:normal;line-height:125%;letter-spacing:0px;word-spacing:0px;fill:#000000;fill-opacity:1;stroke:none;font-family:Raleway;-inkscape-font-specification:Raleway"
     transform="translate(138.73635,-17.378088)"><flowRegion
       id="flowRegion3856"><rect
         id="rect3858"
         width="723.62292"
         height="95.529655"
         x="1160.6567"
         y="828.30511"
         style="font-size:77px" /></flowRegion><flowPara
       id="flowPara3860"
       style="font-size:77px;letter-spacing:1.08000004px;fill:#ececec;fill-opacity:1">Trust the cloud.</flowPara></flowRoot>  <flowRoot
     xml:space="preserve"
     id="flowRoot3854-3"
     style="font-size:77px;font-style:normal;font-variant:normal;font-weight:normal;font-stretch:normal;line-height:125%;letter-spacing:0px;word-spacing:0px;fill:#000000;fill-opacity:1;stroke:none;font-family:Raleway;-inkscape-font-specification:Raleway"
     transform="translate(-173.72775,97.621085)"><flowRegion
       id="flowRegion3856-6"><rect
         id="rect3858-7"
         width="1045.106"
         height="97.817802"
         x="1160.6567"
         y="828.30511"
         style="font-size:77px" /></flowRegion><flowPara
       id="flowPara3860-5"
       style="font-size:77px;letter-spacing:1.08000004px;fill:#ececec;fill-opacity:1">The cloud is your friend.</flowPara></flowRoot>  <path
     style="fill:#ececec;fill-opacity:1;stroke:none"
     d="m 1693.847,563.70633 c 4.9056,-0.21392 9.9225,1.86788 13.2187,6.71875 4.8375,7.11893 2.574,17.64049 -4.7812,22.125 -10.42,6.35315 -24.8562,-2.68628 -23.5,-14.71875 0.97,-8.60627 7.8928,-13.81234 15.0625,-14.125 z m -187.2813,0.0312 c 0.5637,0.005 1.1087,0.0285 1.6875,0.0937 15.0284,1.69391 19.3079,21.2548 6.25,28.59375 -10.7729,6.0547 -22.991,-1.03644 -23,-13.375 -0.01,-8.85324 6.6082,-15.3902 15.0625,-15.3125 z m -15.0625,113.81249 4.5,0 4.5,0 0,11.5 0,11.5 100,0 100,0 0,-11.5 0,-11.5 4.5,0 4.5,0 0,14.8125 c 0,10.17778 -0.3622,15.17477 -1.1875,16 -1.7414,1.7414 -213.8523,1.7414 -215.5937,0 -0.8252,-0.82523 -1.2188,-5.82222 -1.2188,-16 z"
     id="path2987"
     inkscape:connector-curvature="0"
     sodipodi:nodetypes="sssssccsccccccccccccccssssc" />
</svg>
